/* XPM */
static const char * flip_xpm[] = {
"24 16 3 1",
" 	c None",
".	c #000000",
"+	c #777777",
"                        ",
"        ........    .   ",
"      ...++++++...  .+  ",
"    ...+++      +....+  ",
"   ..+++          ...+  ",
"   .++          .....+  ",
"    +            +++++  ",
"                        ",
"   .....            .   ",
"   ...+++          ..+  ",
"   ....          ...++  ",
"   .++...      ...+++   ",
"   .+  +........+++     ",
"    +    ++++++++       ",
"                        ",
"                        "};
