<?xml version="1.0" encoding="UTF-8" standalone="no"?>
<!-- Created with Inkscape (http://www.inkscape.org/) -->

<svg
   xmlns:dc="http://purl.org/dc/elements/1.1/"
   xmlns:cc="http://creativecommons.org/ns#"
   xmlns:rdf="http://www.w3.org/1999/02/22-rdf-syntax-ns#"
   xmlns:svg="http://www.w3.org/2000/svg"
   xmlns="http://www.w3.org/2000/svg"
   xmlns:sodipodi="http://sodipodi.sourceforge.net/DTD/sodipodi-0.dtd"
   xmlns:inkscape="http://www.inkscape.org/namespaces/inkscape"
   width="210mm"
   height="297mm"
   viewBox="0 0 744.09448819 1052.3622047"
   id="svg2"
   version="1.1"
   inkscape:version="0.91 r13725"
   sodipodi:docname="eboard_inkscape.svg"
   inkscape:export-filename="/home/bergo/fics/eboard/xpm/eboard_icon32.png"
   inkscape:export-xdpi="6.8800001"
   inkscape:export-ydpi="6.8800001">
  <defs
     id="defs4" />
  <sodipodi:namedview
     id="base"
     pagecolor="#ffffff"
     bordercolor="#666666"
     borderopacity="1.0"
     inkscape:pageopacity="0.0"
     inkscape:pageshadow="2"
     inkscape:zoom="1.4"
     inkscape:cx="275.5005"
     inkscape:cy="663.06019"
     inkscape:document-units="px"
     inkscape:current-layer="layer1"
     showgrid="false"
     inkscape:window-width="2560"
     inkscape:window-height="1359"
     inkscape:window-x="0"
     inkscape:window-y="31"
     inkscape:window-maximized="1" />
  <metadata
     id="metadata7">
    <rdf:RDF>
      <cc:Work
         rdf:about="">
        <dc:format>image/svg+xml</dc:format>
        <dc:type
           rdf:resource="http://purl.org/dc/dcmitype/StillImage" />
        <dc:title></dc:title>
      </cc:Work>
    </rdf:RDF>
  </metadata>
  <g
     inkscape:label="Layer 1"
     inkscape:groupmode="layer"
     id="layer1">
    <rect
       style="color:#000000;display:inline;overflow:visible;visibility:visible;opacity:1;fill:#aaccff;fill-opacity:1;fill-rule:nonzero;stroke:none;stroke-width:2;stroke-linecap:round;stroke-linejoin:miter;stroke-miterlimit:4;stroke-dasharray:none;stroke-dashoffset:0;stroke-opacity:1;marker:none;enable-background:accumulate"
       id="rect4184"
       width="210"
       height="210"
       x="-338.5715"
       y="140.93358"
       transform="scale(-1,1)" />
    <rect
       y="349.86224"
       x="-547.38104"
       height="210"
       width="210"
       id="rect4186"
       style="color:#000000;display:inline;overflow:visible;visibility:visible;opacity:1;fill:#aaccff;fill-opacity:1;fill-rule:nonzero;stroke:none;stroke-width:2;stroke-linecap:round;stroke-linejoin:miter;stroke-miterlimit:4;stroke-dasharray:none;stroke-dashoffset:0;stroke-opacity:1;marker:none;enable-background:accumulate"
       transform="scale(-1,1)" />
    <rect
       style="color:#000000;display:inline;overflow:visible;visibility:visible;opacity:1;fill:#5f8dd3;fill-opacity:1;fill-rule:nonzero;stroke:none;stroke-width:2;stroke-linecap:round;stroke-linejoin:miter;stroke-miterlimit:4;stroke-dasharray:none;stroke-dashoffset:0;stroke-opacity:1;marker:none;enable-background:accumulate"
       id="rect4180"
       width="210"
       height="210"
       x="-547.38104"
       y="140.93358"
       transform="scale(-1,1)" />
    <rect
       y="349.86224"
       x="-338.57147"
       height="210"
       width="210"
       id="rect4182"
       style="color:#000000;display:inline;overflow:visible;visibility:visible;opacity:1;fill:#5f8dd3;fill-opacity:1;fill-rule:nonzero;stroke:none;stroke-width:2;stroke-linecap:round;stroke-linejoin:miter;stroke-miterlimit:4;stroke-dasharray:none;stroke-dashoffset:0;stroke-opacity:1;marker:none;enable-background:accumulate"
       transform="scale(-1,1)" />
    <g
       id="g4371"
       transform="translate(0,6)">
      <path
         sodipodi:nodetypes="cccccccccccccccccccccccccccccc"
         inkscape:connector-curvature="0"
         id="path4136"
         d="m 279.74573,153.23182 c -15.87991,6.88418 -23.21155,12.01173 -31.99551,20.21953 -11.97396,12.11898 -16.08749,28.39626 -15.99275,44.49762 -1.57345,15.6572 7.21966,30.75369 18.66757,40.83022 10.29755,7.25563 24.34738,6.03994 35.85942,6.85766 -13.248,2.28429 -28.75126,3.53665 -38.25683,14.14596 -10.21409,16.26323 13.66298,19.2419 24.72651,17.09741 11.38484,-4.7567 25.17296,-1.86657 25.10019,12.83141 2.92998,12.31871 2.44563,26.38254 -6.93436,35.90985 -9.25818,10.61831 -23.83948,14.65471 -33.36144,25.11443 -8.79379,6.89249 -21.7513,17.06926 -10.76029,28.4578 4.1085,9.48928 -14.68293,11.09666 -7.12375,22.3635 7.18321,13.275 20.00309,21.37961 34.16744,25.16144 14.67213,2.69022 29.18348,6.79349 44.27467,5.57942 19.55622,-0.63108 39.39554,1.94649 58.55666,-2.93237 12.61663,-2.62254 24.91928,-6.53464 37.18456,-10.41889 9.39938,-6.61532 20.70884,-9.44663 29.96234,-16.56798 11.75187,-5.37002 20.97691,-14.78805 25.75469,-26.93006 4.494,-13.00305 0.62666,-24.66491 -5.85549,-35.07032 1.6933,-12.13363 -3.04897,-27.98369 -17.21721,-29.59401 -13.8111,-3.36128 -27.94526,-5.51146 -42.1769,-4.75672 -12.29855,-0.0514 -20.81598,-10.39692 -29.08948,-18.18129 -7.47153,-9.36788 -12.09831,-27.92778 2.22094,-33.38609 11.78155,-6.41886 22.88873,-17.14807 27.03118,-30.03346 4.25617,-14.82226 -13.954,-18.20101 -24.3846,-14.35208 -7.20563,-0.30445 -30.34189,10.67998 -18.08458,-4.1167 5.73667,-16.62796 4.02247,-35.41703 -2.09515,-51.7031 -4.71551,-12.18742 -15.1436,-21.95578 -28.40589,-23.62262 -12.72021,-4.10565 -28.25581,-3.75996 -41.43592,-1.62132 -3.77822,1.74174 -6.45107,2.55757 -10.33602,4.22076 z"
         style="fill:#e9c6af;fill-rule:evenodd;stroke:#000000;stroke-width:2.5;stroke-linecap:butt;stroke-linejoin:miter;stroke-miterlimit:4;stroke-dasharray:none;stroke-opacity:1" />
      <path
         sodipodi:nodetypes="ccccccccccccccccccccccccccccccccccccccccccccccccccccccccccc"
         inkscape:connector-curvature="0"
         id="path4140"
         d="m 243.02075,178.80122 c -11.6678,12.84954 -11.72371,31.54524 -11.10657,47.86569 2.1674,13.64699 10.27773,26.77345 21.9704,34.18107 9.5054,4.24008 20.99139,5.09854 30.94242,4.06692 0.79538,-3.88831 9.25757,-2.87878 14.14258,-5.55664 4.01902,-2.57299 9.12617,-3.09848 13.63671,-5.05078 4.2557,0.43628 18.2497,-6.17192 7.57618,-3.53516 -6.26519,2.28853 -13.91554,1.30531 -20.20313,4.04102 -5.55496,1.1354 -11.62331,1.07052 -17.67773,1.00976 -5.23913,-0.35968 -8.49184,-4.94121 -13.13301,-6.56665 -3.79273,-1.30402 -7.66915,-3.9617 -12.06405,-8.02441 -3.46436,-3.63702 -6.93632,-8.98446 -8.64298,-12.17871 -1.23616,-4.48626 -1.09596,-11.77981 -1.42857,-17.35045 0.36213,-6.34045 1.12593,-10.70978 2.90792,-16.90624 2.32072,-3.83207 1.75953,-5.98337 5.22936,-10.60743 2.89526,-5.18797 7.80583,-11.33144 10.99442,-16.69783 2.64452,-4.1364 3.56458,-7.52187 11.29325,-13.41768 -11.09788,4.73841 -27.10874,15.39848 -34.4372,24.72752 z m 30.95665,88.89688 c -2.91648,-0.15125 -0.40631,0.84112 0,0 z m -1.27149,0.24805 c -10.31346,2.24147 -23.8419,5.8202 -27.0016,17.32789 -0.0249,12.94127 17.60426,12.96085 27.05043,11.6057 13.02283,-7.31414 27.78212,2.99825 26.02763,17.52109 3.05158,14.09674 -2.50228,29.32854 -14.59276,37.38049 -9.43792,6.77434 -20.2341,11.75464 -28.32096,20.28423 -11.55263,6.37713 -16.95212,19.78516 -8.50746,30.35191 -5.9521,7.54647 -14.30287,16.23682 -3.9229,24.98726 10.40035,14.1482 28.02508,19.88657 44.72084,22.16035 10.67859,2.45909 21.92065,3.41371 32.52921,2.22873 -3.21284,-2.64715 -13.09689,-2.00238 -18.1836,-4.04101 -5.59261,-1.1514 -9.70534,-2.8687 -15.6582,-4.54688 -4.52913,-2.24598 -9.20323,-3.98569 -14.14063,-5.55468 -4.01279,-1.45255 -7.93377,-2.24721 -11.61718,-4.54493 -3.32431,-2.82588 -7.55615,-5.86569 -8.58594,-10.10156 -5.36736,-4.27919 -3.30199,-11.00783 0.5039,-15.15234 5.0915,-1.38032 12.11416,1.81936 17.80815,2.01953 17.15669,3.19036 33.17697,4.61294 49.19724,2.75254 30.75748,-3.32482 50.051,-9.93921 41.1171,-9.94284 -23.645,1.48683 -37.91028,7.33649 -65.19084,3.65514 -7.86418,-1.06055 -9.0058,-1.07693 -19.94981,-3.28418 -9.16097,-2.63109 -13.76665,-4.72351 -20.96035,-5.80761 -1.06083,-5.44328 2.66295,-8.81727 6.00322,-12.56963 3.05771,-3.41311 7.55812,-6.81677 10.66279,-7.6335 2.82114,-1.87691 8.706,-2.86167 12.62696,-5.55664 6.19047,-2.7396 10.96465,-7.69518 16.66797,-11.11133 4.79874,-4.33555 8.55158,-9.30315 8.58593,-15.65625 2.81899,-7.89 0.59717,-17.53107 2.02149,-25.75976 -0.0939,-5.13002 -1.37658,-9.9046 -5.05078,-13.63672 -4.77119,-4.88197 -9.52284,-10.44284 -16.66797,-10.10156 -6.308,-1.23814 -12.75498,-1.52917 -18.6875,-4.04102 -10.4774,-2.47151 4.39288,-2.10772 9.65961,-2.52422 5.26698,-0.78317 17.06807,0.58732 36.62002,-6.26944 -16.15359,2.99225 -43.74895,3.20278 -49.81479,3.23897 -8.30471,1.46761 -15.14785,-5.25455 -6.5664,-11.11328 3.42049,-3.48161 7.20379,-4.92852 11.61718,-6.56445 z m -21.74218,136.95541 -0.004,0.22265 z"
         style="fill:#552200;fill-rule:evenodd;stroke:#000000;stroke-width:2.5;stroke-linecap:butt;stroke-linejoin:miter;stroke-miterlimit:4;stroke-dasharray:none;stroke-opacity:1" />
      <path
         inkscape:connector-curvature="0"
         id="path4153"
         d="m 311.09109,154.30325 c -0.38548,1.95631 -3.01074,-0.3108 -4.04205,1.39135 -2.79004,2.37518 2.0357,3.78343 3.73904,4.11105 2.70635,-0.39631 4.98135,0.85366 7.44987,1.74457 1.52251,1.19827 3.77497,1.52479 4.97497,3.35963 1.59012,1.06787 3.11423,2.25264 4.7412,3.16624 2.05209,1.80262 3.19166,4.34226 5.11426,6.27183 1.52332,2.3807 4.5896,1.75619 6.98601,1.60065 1.45723,-0.94056 3.14908,-2.17361 3.96029,-3.54802 0.27439,-1.9178 0.79103,-4.26579 0.25626,-6.3279 -1.5862,-1.83545 -2.9668,-3.99899 -4.87934,-5.47206 -1.87488,-1.0085 -3.37651,-2.79462 -5.54388,-3.21169 -2.92274,-1.191 -5.82767,-2.44449 -9.04024,-2.6004 -2.35539,-0.89009 -5.08023,-0.018 -7.56057,-0.91324 -2.14472,0.008 -4.28939,-1.26398 -6.15582,0.42803 l 0,-4e-5 z"
         style="fill:#f4e3d7;fill-rule:evenodd;stroke:#000000;stroke-width:2.5;stroke-linecap:butt;stroke-linejoin:miter;stroke-miterlimit:4;stroke-dasharray:none;stroke-opacity:1" />
      <path
         inkscape:connector-curvature="0"
         id="path4155"
         d="m 393.41852,235.11545 c -0.15939,1.89094 0.47651,3.97715 -0.66852,5.67256 -0.77006,1.73955 -2.02262,3.20958 -2.91684,4.87789 -1.71041,2.02079 -3.68243,3.94394 -6.16848,4.96912 -1.07094,0.41798 -2.18077,0.77624 -3.04495,1.57376 -0.93487,0.86499 -2.11388,1.30569 -3.29697,1.69081 -1.67262,0.61965 -3.38917,1.17259 -4.90841,2.12533 -1.00275,0.50754 -2.74946,1.0387 -2.48384,2.45275 0.73708,1.43051 2.59395,1.4543 3.99756,1.39038 2.4554,-0.0244 4.91256,0.01 7.36888,-0.004 1.46005,-1.31402 3.80487,-1.23266 4.97179,-2.94369 0.88136,-1.23068 2.26375,-1.88155 3.38014,-2.80885 1.47123,-1.56789 2.52418,-3.47137 3.55161,-5.34245 0.66186,-1.51789 1.21956,-3.08141 1.87038,-4.60079 0.38852,-1.48017 0.40667,-3.02172 0.73634,-4.5155 0.19345,-1.48771 0.33567,-3.02206 0.0628,-4.50543 -0.29605,-0.98364 -2.52245,0.51228 -1.99602,-0.37105 0.38631,0.15481 -0.37766,0.32897 -0.45545,0.33947 z"
         style="fill:#f4e3d7;fill-rule:evenodd;stroke:#000000;stroke-width:2.5;stroke-linecap:butt;stroke-linejoin:miter;stroke-miterlimit:4;stroke-dasharray:none;stroke-opacity:1" />
      <path
         inkscape:connector-curvature="0"
         id="path4157"
         d="m 363.61902,295.7246 c 2.54601,4.74561 4.83636,9.62197 6.98701,14.53726 4.97339,7.81467 10.95504,15.72495 19.7764,19.37777 4.45014,1.76045 9.16827,2.27161 13.91191,1.91157 5.08936,0.44544 9.83281,2.67673 14.88752,3.46531 4.71929,-0.10287 9.31863,1.03739 13.99162,1.54318 3.33003,1.01639 6.58819,2.65697 9.89961,3.89799 3.60987,1.67421 8.28652,3.68478 8.5925,8.27067 0.75316,4.43261 0.71217,10.06387 -3.56266,12.73532 -5.28942,1.87344 -4.76189,-5.01392 -5.80996,-8.18862 -2.75596,-6.8397 -10.43584,-9.78504 -17.25654,-10.62093 -6.16584,-0.70787 -12.28427,-1.80473 -18.46015,-2.42986 -3.55596,-0.42049 -7.25835,-0.99682 -10.65667,-2.26054 -5.91752,-1.77996 -12.72875,-3.17856 -16.45742,-8.62531 -2.15147,-3.88039 -4.75709,-7.43641 -7.20779,-11.14059 -3.11656,-3.55667 -4.1365,-8.1986 -6.10995,-12.37169 -0.87495,-3.3307 -3.30957,-6.5097 -2.52543,-10.10153 z"
         style="fill:#f4e3d7;fill-rule:evenodd;stroke:#000000;stroke-width:2.5;stroke-linecap:butt;stroke-linejoin:miter;stroke-miterlimit:4;stroke-dasharray:none;stroke-opacity:1" />
      <path
         inkscape:connector-curvature="0"
         id="path4159"
         d="m 451.50229,377.04188 c -0.53014,-2.58755 2.07199,-4.26642 3.42231,-6.09087 2.35157,-2.3923 7.04868,-2.2352 8.49851,1.07214 1.79362,3.25983 1.11083,7.01827 1.21025,10.55799 0.77453,3.93113 -2.12632,7.21469 -2.37649,11.02693 -0.40279,2.46639 -2.95763,5.98528 -5.68914,4.04585 -1.89874,-2.95267 -1.48247,-6.90006 -1.50439,-10.33146 -0.0748,-2.59197 -2.30236,-4.61149 -3.45407,-6.79828 -0.28595,-1.14369 -0.0318,-2.32323 -0.10698,-3.4823 z"
         style="fill:#f4e3d7;fill-rule:evenodd;stroke:#000000;stroke-width:2.5;stroke-linecap:butt;stroke-linejoin:miter;stroke-miterlimit:4;stroke-dasharray:none;stroke-opacity:1" />
    </g>
    <g
       style="font-style:normal;font-variant:normal;font-weight:bold;font-stretch:normal;font-size:122.19396973px;line-height:125%;font-family:'Droid Sans';-inkscape-font-specification:'Droid Sans, Bold';text-align:start;letter-spacing:0px;word-spacing:0px;writing-mode:lr-tb;text-anchor:start;fill:#000000;fill-opacity:1;stroke:none;stroke-width:1px;stroke-linecap:butt;stroke-linejoin:miter;stroke-opacity:1"
       id="text4202"
       transform="translate(0,16)">
      <path
         d="m 167.89707,477.13252 q -4.83286,0 -8.05477,3.40091 -3.16225,3.40091 -3.63957,10.68004 l 23.20969,0 q -0.0597,-3.04292 -0.77564,-5.60851 -0.71598,-2.5656 -2.14794,-4.41521 -1.43196,-1.90928 -3.5799,-2.98326 -2.14794,-1.07397 -5.01187,-1.07397 z m 2.32694,56.20446 q -7.1598,0 -13.18597,-2.08828 -6.02617,-2.08827 -10.38171,-6.26483 -4.35555,-4.23621 -6.80182,-10.62037 -2.3866,-6.44382 -2.3866,-15.09525 0,-8.77076 2.20761,-15.33391 2.2076,-6.56316 6.1455,-10.9187 3.99755,-4.41521 9.5464,-6.62282 5.60851,-2.20761 12.41032,-2.20761 6.62282,0 11.93301,2.02861 5.36985,1.96895 9.06908,5.84718 3.7589,3.87822 5.72785,9.5464 2.02861,5.60851 2.02861,12.88765 l 0,8.83042 -40.69155,0 q 0.11933,3.81856 1.1933,6.92114 1.13364,3.04292 3.10258,5.19086 2.02861,2.08828 4.83287,3.22191 2.86392,1.13364 6.50349,1.13364 3.04291,0 5.72784,-0.29833 2.74459,-0.35799 5.31019,-1.0143 2.56559,-0.65632 5.07152,-1.61096 2.50593,-1.0143 5.1312,-2.32694 l 0,14.08095 q -2.38661,1.25297 -4.83287,2.14794 -2.3866,0.83531 -5.07153,1.43196 -2.68493,0.59665 -5.78751,0.83531 -3.10258,0.29833 -6.80181,0.29833 z"
         style="font-style:normal;font-variant:normal;font-weight:bold;font-stretch:normal;font-size:122.19396973px;line-height:125%;font-family:'Droid Sans';-inkscape-font-specification:'Droid Sans, Bold';text-align:start;writing-mode:lr-tb;text-anchor:start"
         id="path4280"
         inkscape:connector-curvature="0" />
      <path
         d="m 247.60955,464.18521 q 5.13119,0 9.36741,2.20761 4.23622,2.20761 7.27913,6.56315 3.04292,4.35555 4.71354,10.79937 1.73029,6.44382 1.73029,14.91626 0,8.59176 -1.73029,15.09525 -1.67062,6.44382 -4.7732,10.79937 -3.10258,4.35555 -7.45813,6.56315 -4.35555,2.20761 -9.60607,2.20761 -3.34124,0 -5.9665,-0.71598 -2.5656,-0.71598 -4.59421,-1.90928 -2.02861,-1.1933 -3.5799,-2.68493 -1.49163,-1.55129 -2.74459,-3.22191 l -1.25297,0 -3.04291,7.3388 -13.90195,0 0,-92.83878 18.19783,0 0,21.59874 q 0,1.96894 -0.11933,4.29588 -0.11933,2.26727 -0.23866,4.23622 -0.179,2.32693 -0.35799,4.65387 l 0.71598,0 q 1.25296,-2.08828 2.86392,-3.87823 1.61096,-1.78995 3.69923,-3.10258 2.14794,-1.3723 4.83287,-2.14794 2.68492,-0.77565 5.9665,-0.77565 z m -6.1455,14.55827 q -3.04291,0 -5.19085,1.13364 -2.08828,1.07397 -3.40091,3.28157 -1.31263,2.20761 -1.90928,5.60851 -0.59665,3.34125 -0.71598,7.81612 l 0,1.96895 q 0,4.83287 0.53698,8.59176 0.59665,3.7589 1.90928,6.32449 1.31264,2.50594 3.46058,3.81857 2.2076,1.31263 5.42951,1.31263 5.42952,0 7.93545,-5.1312 2.5656,-5.19085 2.5656,-15.03558 0,-9.84473 -2.5656,-14.73726 -2.50593,-4.9522 -8.05478,-4.9522 z"
         style="font-style:normal;font-variant:normal;font-weight:bold;font-stretch:normal;font-size:122.19396973px;line-height:125%;font-family:'Droid Sans';-inkscape-font-specification:'Droid Sans, Bold';text-align:start;writing-mode:lr-tb;text-anchor:start"
         id="path4282"
         inkscape:connector-curvature="0" />
      <path
         d="m 301.42739,498.6716 q 0,9.96406 2.80426,15.03558 2.80426,5.01187 9.12875,5.01187 6.26483,0 9.06908,-5.07153 2.80426,-5.07153 2.80426,-14.97592 0,-9.96406 -2.80426,-14.85659 -2.80425,-4.9522 -9.18841,-4.9522 -6.26483,0 -9.06908,4.9522 -2.7446,4.89253 -2.7446,14.85659 z m 42.36217,0 q 0,8.3531 -2.14794,14.79692 -2.08828,6.44383 -6.08583,10.85904 -3.93789,4.41521 -9.66574,6.74215 -5.66817,2.26727 -12.76831,2.26727 -6.62282,0 -12.17167,-2.26727 -5.54884,-2.32694 -9.60606,-6.74215 -3.99756,-4.41521 -6.26483,-10.85904 -2.26727,-6.44382 -2.26727,-14.79692 0,-8.29344 2.08827,-14.73726 2.14794,-6.44383 6.08584,-10.79937 3.99755,-4.41521 9.66573,-6.68248 5.66818,-2.26728 12.82798,-2.26728 6.62282,0 12.17166,2.26728 5.54885,2.26727 9.54641,6.68248 4.05722,4.35554 6.32449,10.79937 2.26727,6.44382 2.26727,14.73726 z"
         style="font-style:normal;font-variant:normal;font-weight:bold;font-stretch:normal;font-size:122.19396973px;line-height:125%;font-family:'Droid Sans';-inkscape-font-specification:'Droid Sans, Bold';text-align:start;writing-mode:lr-tb;text-anchor:start"
         id="path4284"
         inkscape:connector-curvature="0" />
      <path
         d="m 398.26373,532.14368 -3.52024,-9.06909 -0.53699,0 q -1.96894,2.68493 -3.93789,4.65387 -1.96894,1.90929 -4.29588,3.16225 -2.32694,1.25297 -5.25052,1.84962 -2.86392,0.59665 -6.68248,0.59665 -4.05723,0 -7.5178,-1.25297 -3.46057,-1.31263 -6.02617,-3.87822 -2.50593,-2.62527 -3.93789,-6.56316 -1.43196,-3.99755 -1.43196,-9.42707 0,-10.62038 6.80182,-15.63224 6.80181,-5.07152 20.34577,-5.60851 l 10.62037,-0.35799 0,-5.01186 q 0,-4.11689 -2.3866,-6.08583 -2.3866,-1.96895 -6.68248,-1.96895 -4.29588,0 -8.41277,1.25297 -4.05722,1.25296 -8.17411,3.34124 l -5.90683,-12.05234 q 5.01186,-2.80425 11.09769,-4.41521 6.08583,-1.61096 12.76831,-1.61096 12.46999,0 19.09281,5.84718 6.68249,5.84717 6.68249,17.78017 l 0,44.45045 -12.70865,0 z m -5.36986,-30.90649 -6.02616,0.23866 q -3.63957,0.11933 -6.1455,0.95464 -2.50593,0.83532 -4.05722,2.26728 -1.49163,1.37229 -2.20761,3.34124 -0.65631,1.90928 -0.65631,4.29588 0,4.17655 2.02861,5.9665 2.02861,1.73029 5.31018,1.73029 2.50593,0 4.65388,-0.83531 2.14794,-0.89498 3.69923,-2.5656 1.61095,-1.73029 2.50593,-4.17655 0.89497,-2.50593 0.89497,-5.72784 l 0,-5.48919 z"
         style="font-style:normal;font-variant:normal;font-weight:bold;font-stretch:normal;font-size:122.19396973px;line-height:125%;font-family:'Droid Sans';-inkscape-font-specification:'Droid Sans, Bold';text-align:start;writing-mode:lr-tb;text-anchor:start"
         id="path4286"
         inkscape:connector-curvature="0" />
      <path
         d="m 464.49191,464.18521 q 0.71598,0 1.55129,0.0597 0.89498,0 1.67062,0.11933 0.83531,0.0597 1.49163,0.17899 0.71598,0.0597 1.07397,0.179 l 0,17.0642 q -0.47732,-0.11933 -1.31263,-0.23866 -0.83531,-0.11933 -1.78995,-0.179 -0.89498,-0.11933 -1.78995,-0.11933 -0.89498,-0.0597 -1.49163,-0.0597 -3.52024,0 -6.50349,0.89497 -2.92358,0.89498 -5.07152,2.92359 -2.08828,1.96894 -3.28158,5.25052 -1.13364,3.22191 -1.13364,7.93545 l 0,33.9494 -18.19783,0 0,-66.7055 13.78262,0 2.68493,10.02372 0.89497,0 q 1.43196,-2.56559 3.10258,-4.65387 1.67063,-2.08827 3.69924,-3.52023 2.08827,-1.49163 4.65387,-2.26728 2.62526,-0.83531 5.9665,-0.83531 z"
         style="font-style:normal;font-variant:normal;font-weight:bold;font-stretch:normal;font-size:122.19396973px;line-height:125%;font-family:'Droid Sans';-inkscape-font-specification:'Droid Sans, Bold';text-align:start;writing-mode:lr-tb;text-anchor:start"
         id="path4288"
         inkscape:connector-curvature="0" />
      <path
         d="m 502.31954,533.33698 q -5.13119,0 -9.36741,-2.20761 -4.23622,-2.2076 -7.27913,-6.50349 -3.04292,-4.35554 -4.77321,-10.79937 -1.67062,-6.44382 -1.67062,-14.91625 0,-8.59177 1.67062,-15.03559 1.73029,-6.50349 4.83287,-10.85903 3.16225,-4.41521 7.51779,-6.62282 4.35555,-2.20761 9.60607,-2.20761 3.22191,0 5.90684,0.77565 2.68493,0.71598 4.83287,2.08828 2.14794,1.31263 3.81856,3.10258 1.73028,1.73028 3.04292,3.81856 l 0.59665,0 q -0.35799,-2.32694 -0.65632,-4.71354 -0.29832,-2.02861 -0.53698,-4.29588 -0.179,-2.32694 -0.179,-4.29588 l 0,-21.36008 18.19783,0 0,92.83878 -13.90195,0 -3.52023,-8.65143 -0.77565,0 q -1.25297,2.02861 -2.86392,3.87822 -1.61096,1.78996 -3.7589,3.10259 -2.08827,1.31263 -4.7732,2.08827 -2.62526,0.77565 -5.9665,0.77565 z m 6.62282,-14.4986 q 3.22191,0 5.48918,-1.07397 2.26727,-1.13364 3.63956,-3.34125 1.43196,-2.26727 2.08828,-5.60851 0.71598,-3.34124 0.77565,-7.81612 l 0,-1.96894 q 0,-4.83287 -0.59665,-8.59177 -0.59665,-3.75889 -1.96895,-6.26482 -1.3723,-2.5656 -3.69923,-3.87823 -2.32694,-1.31263 -5.84717,-1.31263 -5.72785,0 -8.41277,5.19086 -2.68493,5.13119 -2.68493,14.97592 0,9.84473 2.68493,14.79692 2.74459,4.89254 8.5321,4.89254 z"
         style="font-style:normal;font-variant:normal;font-weight:bold;font-stretch:normal;font-size:122.19396973px;line-height:125%;font-family:'Droid Sans';-inkscape-font-specification:'Droid Sans, Bold';text-align:start;writing-mode:lr-tb;text-anchor:start"
         id="path4290"
         inkscape:connector-curvature="0" />
    </g>
  </g>
</svg>
