/* XPM */
static const char *icon_eboard_xpm[] = {
/* columns rows colors chars-per-pixel */
"64 64 242 2 ",
"   c #000001",
".  c #050709",
"X  c #06080C",
"o  c #0A0C0F",
"O  c #070B10",
"+  c #0A0D13",
"@  c #0D131C",
"#  c #11141A",
"$  c #14181E",
"%  c #2A180D",
"&  c #3D1E0A",
"*  c #2C1E15",
"=  c #281E18",
"-  c #341F13",
";  c #3D200D",
":  c #2F2017",
">  c #2F2119",
",  c #352215",
"<  c #3B2212",
"1  c #3D271A",
"2  c #0F1621",
"3  c #101723",
"4  c #161B21",
"5  c #191E26",
"6  c #131C2A",
"7  c #162131",
"8  c #182436",
"9  c #1C293E",
"0  c #2C2422",
"q  c #2B2629",
"w  c #312724",
"e  c #3A2920",
"r  c #352D2B",
"t  c #232A35",
"y  c #29313E",
"u  c #3A3434",
"i  c #32323A",
"p  c #3D3738",
"a  c #3C3A3E",
"s  c #451E04",
"d  c #4B1E00",
"f  c #4C2104",
"g  c #46230B",
"h  c #4B240B",
"j  c #542200",
"k  c #472610",
"l  c #4B2A14",
"z  c #4C2D19",
"x  c #4E311E",
"c  c #413025",
"v  c #4D3322",
"b  c #4A372B",
"n  c #513725",
"m  c #533825",
"M  c #543928",
"N  c #593E2D",
"B  c #433C37",
"V  c #473E39",
"C  c #5C412F",
"Z  c #5C4332",
"A  c #5A4638",
"S  c #614735",
"D  c #644B3A",
"F  c #684E3D",
"G  c #6A513F",
"H  c #1E2C42",
"J  c #2D3644",
"K  c #22324B",
"L  c #333D4C",
"P  c #253651",
"I  c #273A56",
"U  c #293D5B",
"Y  c #353D50",
"T  c #394455",
"R  c #3B4759",
"E  c #3D4A5C",
"W  c #2C4263",
"Q  c #2F4669",
"!  c #3B4A66",
"~  c #30476B",
"^  c #30486C",
"/  c #3E4F6D",
"(  c #344D73",
")  c #39557F",
"_  c #414146",
"`  c #424249",
"'  c #49484D",
"]  c #564B45",
"[  c #5F544C",
"{  c #464851",
"}  c #4D4F5A",
"|  c #675244",
" . c #6C5343",
".. c #60544C",
"X. c #775E4E",
"o. c #665E5C",
"O. c #6B6059",
"+. c #7B6354",
"@. c #71645C",
"#. c #414E61",
"$. c #455266",
"%. c #49586E",
"&. c #555C6C",
"*. c #585B68",
"=. c #4D5D74",
"-. c #445779",
";. c #515E76",
":. c #53617B",
">. c #5B6578",
",. c #5C687E",
"<. c #6C686E",
"1. c #736866",
"2. c #796C63",
"3. c #766D6F",
"4. c #786D6A",
"5. c #7C716C",
"6. c #616676",
"7. c #6B6B76",
"8. c #716D74",
"9. c #7C7271",
"0. c #73757F",
"q. c #7F797B",
"w. c #856C5C",
"e. c #847165",
"r. c #8B7263",
"t. c #84756B",
"y. c #88766B",
"u. c #8B7A6E",
"i. c #907766",
"p. c #957B6A",
"a. c #827674",
"s. c #847975",
"d. c #8B7C72",
"f. c #857B79",
"g. c #917F73",
"h. c #9B806F",
"j. c #948275",
"k. c #9B8576",
"l. c #93847A",
"z. c #9E8779",
"x. c #96897F",
"c. c #9F887B",
"v. c #A58978",
"b. c #A58A79",
"n. c #AB917E",
"m. c #3B5782",
"M. c #3C5A86",
"N. c #3E5C89",
"B. c #435A80",
"V. c #4D6184",
"C. c #40608F",
"Z. c #4D648A",
"A. c #526482",
"S. c #50688E",
"D. c #5B6D89",
"F. c #5E718D",
"G. c #426293",
"H. c #4A6693",
"J. c #4E6995",
"K. c #456698",
"L. c #6B6F82",
"P. c #6F7584",
"I. c #727684",
"U. c #767882",
"Y. c #7A7B85",
"T. c #757C8C",
"R. c #607390",
"E. c #657B9B",
"W. c #486BA0",
"Q. c #4D73AC",
"!. c #5271A1",
"~. c #5175AC",
"^. c #5077B2",
"/. c #5279B5",
"(. c #547CBA",
"). c #6E809D",
"_. c #76859E",
"`. c #6E83A4",
"'. c #7086A5",
"]. c #7B8BA6",
"[. c #7086A8",
"{. c #7389AB",
"}. c #7D8EAD",
"|. c #778FB2",
" X c #7B91B2",
".X c #7D95BB",
"XX c #7F98BE",
"oX c #5983C4",
"OX c #5B86C9",
"+X c #5C89CD",
"@X c #5F8DD3",
"#X c #81818C",
"$X c #9A8B83",
"%X c #9E9187",
"&X c #9F938A",
"*X c #838490",
"=X c #A18D83",
"-X c #AC9383",
";X c #A8968B",
":X c #A6998F",
">X c #B19785",
",X c #B09789",
"<X c #B29988",
"1X c #BA9E8C",
"2X c #A79A92",
"3X c #BEA28F",
"4X c #BEA493",
"5X c #8095B7",
"6X c #849ABE",
"7X c #B7AAA0",
"8X c #C3A796",
"9X c #C6A995",
"0X c #C8AA96",
"qX c #CDAE9B",
"wX c #D1B29D",
"eX c #C4B7AD",
"rX c #D5B5A1",
"tX c #DCBBA5",
"yX c #CBBBB1",
"uX c #E0BEA8",
"iX c #D1C1B7",
"pX c #E4C2AC",
"aX c #E9C6AF",
"sX c #839DC4",
"dX c #85A0C7",
"fX c #87A2CB",
"gX c #8BA7D1",
"hX c #8FABD6",
"jX c #92AED6",
"kX c #91AEDA",
"lX c #94B2DE",
"zX c #97B6E3",
"xX c #99B7E5",
"cX c #99B8E7",
"vX c #9CBBEA",
"bX c #A2C3F4",
"nX c #A4C7FB",
"mX c #AACCFF",
"MX c #E2D2C7",
"NX c #E8D7CC",
"BX c #EDDDD1",
"VX c #F4E3D7",
/* pixels */
"mXmXmXmXmXmXmXmXmXmXmXmXmXmXmXmXmXmXmXmXmXmXmXmXmXmXmXmXmXmXmXnX@X@X@X@X@X@X@X@X@X@X@X@X@X@X@X@X@X@X@X@X@X@X@X@X@X@X@X@X@X@X@X@X",
"mXmXmXmXmXmXmXmXmXmXmXmXmXmXmXmXmXmXmXmXmXmXmXmXnXkX6X.XdXlXmXnX@X@X@X@X@X@X@X@X@X@X@X@X@X@X@X@X@X@X@X@X@X@X@X@X@X@X@X@X@X@X@X@X",
"mXmXmXmXmXmXmXmXmXmXmXmXmXmXmXmXmXmXmXmXmXmXfXI.s.>X0X<Xu.y.9.U.S.@X@X@X@X@X@X@X@X@X@X@X@X@X@X@X@X@X@X@X@X@X@X@X@X@X@X@X@X@X@X@X",
"mXmXmXmXmXmXmXmXmXmXmXmXmXmXmXmXmXmXmXmXsX> ] aXaXaXaX] &XeX;Xd.>X*.OX@X@X@X@X@X@X@X@X@X@X@X@X@X@X@X@X@X@X@X@X@X@X@X@X@X@X@X@X@X",
"mXmXmXmXmXmXmXmXmXmXmXmXmXmXmXmXmXmXmX} ;  .aXaXaXaXaXaXwXt.yXVXd.tX&.@X@X@X@X@X@X@X@X@X@X@X@X@X@X@X@X@X@X@X@X@X@X@X@X@X@X@X@X@X",
"mXmXmXmXmXmXmXmXmXmXmXmXmXmXmXmXmXnXu f v uXaXaXaXaXaXaXaXaXj.iX:XwX8XS.@X@X@X@X@X@X@X@X@X@X@X@X@X@X@X@X@X@X@X@X@X@X@X@X@X@X@X@X",
"mXmXmXmXmXmXmXmXmXmXmXmXmXmXmXmXmXp j h b.aXaXaXaXaXaXaXaXaXaXv.-XaXaX6.@X@X@X@X@X@X@X@X@X@X@X@X@X@X@X@X@X@X@X@X@X@X@X@X@X@X@X@X",
"mXmXmXmXmXmXmXmXmXmXmXmXmXmXmXmX,.f j F aXaXaXaXaXaXaXaXaXaXaXaXaXaXaXa.+X@X@X@X@X@X@X@X@X@X@X@X@X@X@X@X@X@X@X@X@X@X@X@X@X@X@X@X",
"mXmXmXmXmXmXmXmXmXmXmXmXmXmXmXmXe j l wXaXaXaXaXaXaXaXaXaXaXaXaXaXaXaX3XQ.@X@X@X@X@X@X@X@X@X@X@X@X@X@X@X@X@X@X@X@X@X@X@X@X@X@X@X",
"mXmXmXmXmXmXmXmXmXmXmXmXmXmXmXzX; j D aXaXaXaXaXaXaXaXaXaXaXaXaXaXaXaXrXZ.@X@X@X@X@X@X@X@X@X@X@X@X@X@X@X@X@X@X@X@X@X@X@X@X@X@X@X",
"mXmXmXmXmXmXmXmXmXmXmXmXmXmXmX,.f j +.aXaXaXaXaXaXaXaXaXaXaXaXaXaXaXaXpXV.@X@X@X@X@X@X@X@X@X@X@X@X@X@X@X@X@X@X@X@X@X@X@X@X@X@X@X",
"mXmXmXmXmXmXmXmXmXmXmXmXmXmXmX{ j j i.aXaXaXaXaXaXaXaXaXaXaXaXaXaXaXaXtXZ.@X@X@X@X@X@X@X@X@X@X@X@X@X@X@X@X@X@X@X@X@X@X@X@X@X@X@X",
"mXmXmXmXmXmXmXmXmXmXmXmXmXmXmX_ j j i.aXaXaXaXaXaXaXaXaXaXaXaXaXaXaXaX3XQ.@X@X@X@X@X@X@X@X@X@X@X@X@X@X@X@X@X@X@X@X@X@X@X@X@X@X@X",
"mXmXmXmXmXmXmXmXmXmXmXmXmXmXmX` j j +.aXaXaXaXaXaXaXaXaXaXaXaXaXaXaXaX9.@X@X@X@X@X@X@X@X@X@X@X@X@X@X@X@X@X@X@X@X@X@X@X@X@X@X@X@X",
"mXmXmXmXmXmXmXmXmXmXmXmXmXmXmX>.j j D aXaXaXaXaXaXaXaXaXaXaXaXaXaXaXaX$.H.:.6.8.7.A.@X@X@X@X@X@X@X@X@X@X@X@X@X@X@X@X@X@X@X@X@X@X",
"mXmXmXmXmXmXmXmXmXmXmXmXmXmXmXvX< j h h.aXaXaXaXaXaXaXaXaXaXaXaXaXaXaX,XwXaXaXaX[ 8XJ.@X@X@X@X@X@X@X@X@X@X@X@X@X@X@X@X@X@X@X@X@X",
"mXmXmXmXmXmXmXmXmXmXmXmXmXmXmXmXp j j z p.aXaXaXaXaXaXaXaXaXaXaXaXaXaXaXaXaXaXwXB tXA.@X@X@X@X@X@X@X@X@X@X@X@X@X@X@X@X@X@X@X@X@X",
"mXmXmXmXmXmXmXmXmXmXmXmXmXmXmXmXcX, j j f Z 3XaXaXaXpX3Xe.X.aXaXaXaXaXaXaXaX-Xf.d.a.OX@X@X@X@X@X@X@X@X@X@X@X@X@X@X@X@X@X@X@X@X@X",
"mXmXmXmXmXmXmXmXmXmXmXmXmXmXmXmXmX X< j j j h C Z n * c w.wXaXaXaXaXaXaXqXO.2Xt.8X:.@X@X@X@X@X@X@X@X@X@X@X@X@X@X@X@X@X@X@X@X@X@X",
"mXmXmXmXmXmXmXmXmXmXmXmXmXmXmXmXmXmXgXp 1 ; s ; A r.tXaXaXaXaXaXaXaXaXaXpX-X>XwX&.@X@X@X@X@X@X@X@X@X@X@X@X@X@X@X@X@X@X@X@X@X@X@X",
"mXmXmXmXmXmXmXmXmXmXmXmXmXmXmXmXmXmXmXhXa u o.$XpXaXaXaXaXaXaXaXaXaXaXaXaXaX;X;.@X@X@X@X@X@X@X@X@X@X@X@X@X@X@X@X@X@X@X@X@X@X@X@X",
"mXmXmXmXmXmXmXmXmXmXmXmXmXmXmXmXmXmX&.% w.aXaXaXaXaXaXaXaXaXaXaXaXaXaXaXaX<.!.@X@X@X@X@X@X@X@X@X@X@X@X@X@X@X@X@X@X@X@X@X@X@X@X@X",
"mXmXmXmXmXmXmXmXmXmXmXmXmXmXmXmXmXsXg z b.1X1X>Xb.i.+.| e.aXaXaXaXaXaXaXs.oX@X@X@X@X@X@X@X@X@X@X@X@X@X@X@X@X@X@X@X@X@X@X@X@X@X@X",
"mXmXmXmXmXmXmXmXmXmXmXmXmXmXmXmXmX).s j d % : b A | r.qXaXaXaXaXaXaXaXaX8.@X@X@X@X@X@X@X@X@X@X@X@X@X@X@X@X@X@X@X@X@X@X@X@X@X@X@X",
"mXmXmXmXmXmXmXmXmXmXmXmXmXmXmXmXmXmX' 1 ; < = a q D rXaXaXaXaXaXaXaXaX9X4.+X@X@X@X@X@X@X@X@X@X@X@X@X@X@X@X@X@X@X@X@X@X@X@X@X@X@X",
"mXmXmXmXmXmXmXmXmXmXmXmXmXmXmXmXmXmXmXmXmXmXmXmXnXe n wXaXaXaXaXaXaXaXwX[ Z.@X@X@X@X@X@X@X@X@X@X@X@X@X@X@X@X@X@X@X@X@X@X@X@X@X@X",
"mXmXmXmXmXmXmXmXmXmXmXmXmXmXmXmXmXmXmXmXmXmXmXmXmX&.s Z aXaXaXaXaXaXaXaXV 5.~.@X@X@X@X@X@X@X@X@X@X@X@X@X@X@X@X@X@X@X@X@X@X@X@X@X",
"mXmXmXmXmXmXmXmXmXmXmXmXmXmXmXmXmXmXmXmXmXmXmXmXmX'.s k tXaXaXaXaXaXaXaX-X] s.!.@X@X@X@X@X@X@X@X@X@X@X@X@X@X@X@X@X@X@X@X@X@X@X@X",
"mXmXmXmXmXmXmXmXmXmXmXmXmXmXmXmXmXmXmXmXmXmXmXmXmXdXs s 9XaXaXaXaXaXaXaXaX@.t.$X:./.@X@X@X@X@X@X@X@X@X@X@X@X@X@X@X@X@X@X@X@X@X@X",
"mXmXmXmXmXmXmXmXmXmXmXmXmXmXmXmXmXmXmXmXmXmXmXmXmX{.s g wXaXaXaXaXaXaXaXaXwX5.u.z.d.1.3.3.8.6.:.!.+X@X@X@X@X@X@X@X@X@X@X@X@X@X@X",
"mXmXmXmXmXmXmXmXmXmXmXmXmXmXmXmXmXmXmXmXmXmXmXmXmX_ j k tXaXaXaXaXaXaXaXaXaX4Xd.$X7X2Xl.j.j.k.tXwX9.!.@X@X@X@X@X@X@X@X@X@X@X@X@X",
"nXnXnXnXnXnXnXnXnXnXnXnXnXnXnXnXnXnXnXnXnXnXnXnXlX< j z pXaXaXaXaXaXaXaXaXaXaXaXwXk.d.j.l.x.eX%Xd.tX4.+X@X@X@X@X@X@X@X@X@X@X@X@X",
"@X@X@X@X@X@X@X@X@X@X@X@X@X@X@X@X@X@X@X@X@X@X@X(.> j j N aXaXaXaXaXaXaXaXaXaXaXaXaXaXaXaXaXpX-Xx.BXg.qX XnXnXnXnXnXnXnXnXnXnXnXnX",
"@X@X@X@X@X@X@X@X@X@X@X@X@X@X@X@X@X@X@X@X@X@X! < j j f i.aXaXaXaXaXaXaXaXaXaXaXaXaXaXaXaXaXaXaX-XiXj.aX).mXmXmXmXmXmXmXmXmXmXmXmX",
"@X@X@X@X@X@X@X@X@X@X@X@X@X@X@X@X@X@X@X@X(.w s j j h X.aXaXaXaXaXaXaXaXaXaXaXaXaXaXaXaXaXaXaXaXpX2.3XaXI.mXmXmXmXmXmXmXmXmXmXmXmX",
"@X@X@X@X@X@X@X@X@X@X@X@X@X@X@X@X@X@X@XH.- j j j x b.aXaXaXaXaXaXaXaXaXaXaXaXaXaXaXaXaXaXaXaXaXaXaXtXz.s.bXmXmXmXmXmXmXmXmXmXmXmX",
"@X@X@X@X@X@X@X@X@X@X@X@X@X@X@X@X@X@X/ < j j x X.uXaXaXaXaXaXaXaXaXaXaXaXaXaXaXaXaXaXaXaXaXaXaXaXaXd.MXi.].mXmXmXmXmXmXmXmXmXmXmX",
"@X@X@X@X@X@X@X@X@X@X@X@X@X@X@X@X@XH.g j l w.pXaXaXaXaXaXaXaXaXaXaXaXaXaXaXaXaXaXaXaXaXaXaXaXaXaXaXd.VXj.T.mXmXmXmXmXmXmXmXmXmXmX",
"@X@X@X@X@X@X@X@X@X@X@X@X@X@X@X@X@Xr j k b.aXaXaXaXaXaXaXaXaXaXaXaXaXaXaXaXaXaXaXaXaXaXaXaXaXaXaXaXz.NXg.T.mXmXmXmXmXmXmXmXmXmXmX",
"@X@X@X@X@X@X@X@X@X@X@X@X@X@X@X@X@Xr j  .aXaXaXaXaXaXaXaXaXaXaXaXaXaXaXaXaXaXaXaXaXaXaXaXaXaXaXaXaX<X$X1X_.mXmXmXmXmXmXmXmXmXmXmX",
"@X@X@X@X@X@X@X@X@X@X@X@X@X@X@X@X@X/ d h M  .b.tXaXaXaXaXaXaXaXaXaXwX4Xn.aXaXaXaXaXaXaXaXaXaXaXaXaXpX-Xf.bXmXmXmXmXmXmXmXmXmXmXmX",
"@X@X@X@X@X@X@X@X@X@X@X@X@X@X@X@X@Xr s n z s s g x Z D G  .F S v , * c w.aXaXaXaXaXaXaXaXaXaXaXaXaXaX4X].mXmXmXmXmXmXmXmXmXmXmXmX",
"@X@X@X@X@X@X@X@X@X@X@X@X@X@X@X@X-.g N aXaX9Xp.+. .D Z Z D  .+.h.9XaXaXaXaXaXaXaXaXaXaXaXaXaXaXaXaX4XT.mXmXmXmXmXmXmXmXmXmXmXmXmX",
"@X@X@X@X@X@X@X@X@X@X@X@X@X@X@X@XY d M pXaXaXaXaXaXaXaXaXaXaXaXaXaXaXaXaXaXaXaXaXaXaXaXaXaXaXaXpXq.}.mXmXmXmXmXmXmXmXmXmXmXmXmXmX",
"@X@X@X@X@X@X@X@X@X@X@X@X@X@X@X@XOX* j +.aXaXaXaXaXaXaXaXaXaXaXaXaXaXaXaXaXaXaXaXaXaXaXaXaXaX=XI.bXmXmXmXmXmXmXmXmXmXmXmXmXmXmXmX",
"@X@X@X@X@X@X@X@X@X@X@X@X@X@X@X@X@XQ., g | 9XaXaXaXaXaXaXaXaXaXaXaXaXaXaXaXaXaXaXaXaXaXaX$XP.lXmXmXmXmXmXmXmXmXmXmXmXmXmXmXmXmXmX",
"@X@X@X@X@X@X@X@X@X@X@X@X@X@X@X@X@X@X(.q s g N w.uXaXaXaXaXaXaXaXaXaXaXaXaXaXaXaXaXwXd.0.jXmXmXmXmXmXmXmXmXmXmXmXmXmXmXmXmXmXmXmX",
"@X@X@X@X@X@X@X@X@X@X@X@X@X@X@X@X@X@X@X@X-.r < & & Z +.n.rXaXaXaXaXaXaXaXaXrXc.f.T.}.nXmXmXmXmXmXmXmXmXmXmXmXmXmXmXmXmXmXmXmXmXmX",
"@X@X@X@X@X@X@X@X@X@X@X@XW.    W @X@X@X@X@X@X@X^.! i r 0 0 } >.L.*X#XY.T.T.}.vXmXmXmXmXmXmXmXmXmXmXmXmXmXmXmXmXmXmXmXmXsX    =.mX",
"@X@X@X@X@X@X@X@X@X@X@X@XW.    W @X@X@X@X@X@X@X@X@X@X@X@X@X@X@X@XnXmXmXmXmXmXmXmXmXmXmXmXmXmXmXmXmXmXmXmXmXmXmXmXmXmXmXsX    =.mX",
"@X@X@X@X@X@X@X@X@X@X@X@XW.    W @X@X@X@X@X@X@X@X@X@X@X@X@X@X@X@XnXmXmXmXmXmXmXmXmXmXmXmXmXmXmXmXmXmXmXmXmXmXmXmXmXmXmXsX    =.mX",
"@X@X@X@X@X/.(.@X@X@X@X@XW.    W @XoX(.@X@X@X@X@X@X@X@X(./.OX@X@XnXmXmXmXmXmXcXhXnXmXmXmXmXmXmXmXmXmXbXjXnXmXmXmXvXlXmXsX    =.mX",
"@X@X@XQ X     X ^ @X@X@XW.    W K     @ Q.@X@X@X@XN.@     . P OXnXmXmXlX#..       Y cXmXmXmX.   .XD..   dXmXbXT     4 '.    =.mX",
"@X@XU     O O     U @X@XW.    O         @ +X@X@X)             7 bXmXmXcXX   o o     L mXmXmX    t       dXmX$.        o     =.mX",
"@X/.    H +X@XH     oX@XW.    . G.(.7     N.@X+XO   . G./.H     E.mXmXmX{.hXmXnXt     nXmXmX.     + ;.F.zXvX.   X |.gXy     =.mX",
"@X(     N.oXoXN.    G.@XW.    9 @X@XC.    U @XK.    P @X@X^.    L mXmXmXmXmXbXxXR     kXmXmX      gXmXmXmXsX    #.mXmXsX    =.mX",
"@XI                 m.@XW.    U @X@X^.    H @X)     ( @X@X@X    5 mXmXlX#.#           hXmXmX    4 mXmXmXmX'.    F.mXmXcX    =.mX",
"@XP     3 6 6 6 6 6 G.@XW.    U @X@X^.    9 @X)     ( @X@X@X.   5 mXbX#     J =.t     jXmXmX.   t mXmXmXmX).    R.mXmXbX    =.mX",
"@XW     K.@X@X@X@X@X@X@XW.    K @X@XK.    P @XK.    U @X@X(.    y mXXX    R mXmXE     jXmXmX    t mXmXmXmX.X    =.mXmXhX    =.mX",
"@XW.    8 +X@X@X+XW.@X@XW.    . /.@XH     ) @XOX.   + (.@XW     A.mX{.    =.mXbX#     kXmXmX.   t mXmXmXmXzX    $ vXmX%.    =.mX",
"@X@X9     @ H 7 . 6 @X@XW.        X     X oX@X@X^       O     O zXmXkX    . Y $ .     hXmXmX.   t mXmXmXmXmXJ     X # .     =.mX",
"@X@XOXK           H @X@XW.    N.+     . C.@X@X@X@XW .       2 Q.nXmXmX=.      5 dX.   hXmXmX    t mXmXmXmXmXlX4     . |.5   =.mX",
"@X@X@X@X(.N.m.G.^.@X@X@XOXQ.Q.@XOXC.M.oX@X@X@X@X@X@X(.C.M.W.@X@XnXmXmXmXgX`..XbXmXhXgXbXmXmXfXfXhXmXmXmXmXmXmXbX|.[.vXmXlXfXzXmX",
"@X@X@X@X@X@X@X@X@X@X@X@X@X@X@X@X@X@X@X@X@X@X@X@X@X@X@X@X@X@X@X@XnXmXmXmXmXmXmXmXmXmXmXmXmXmXmXmXmXmXmXmXmXmXmXmXmXmXmXmXmXmXmXmX"
};
